<svg width="166" height="60" viewBox="0 0 166 60" fill="none" xmlns="http://www.w3.org/2000/svg">
<path fill-rule="evenodd" clip-rule="evenodd" d="M25.0402 0L50.0804 15.0049V44.998L46.0905 42.4271V19.6792L40.312 23.125V38.8566L27.104 46.7738V53.7644L46.0908 42.4353L50.0808 45.0062L25.0405 60V58.7091H25.0402V59.9945L0 44.998V15.0049L25.0402 0ZM37.2851 36.9998L27.104 43.1367L27.104 31.0012L37.2851 24.93V36.9998ZM35.0665 21.3101L25.0402 27.2878L15.0406 21.2941L25.0402 15.2906L35.0665 21.3101ZM12.7953 36.9998L22.9765 43.1418L22.9765 31.0012L12.7953 24.8975L12.7953 36.9998ZM22.9765 53.7714V46.7796L9.76844 38.8566V23.0829L3.85234 19.5362V42.4271L22.9765 53.7714ZM12.2915 19.6464L25.0402 12.0056L37.8229 19.6668L44.0939 15.9281L25.0402 4.29309L5.8671 15.7957L12.2915 19.6464Z" fill="url(#paint0_linear_850_15759)"/>
<path d="M109.452 13.9583V44.7893H114.885V13.9583H109.452Z" fill="url(#paint1_linear_850_15759)"/>
<path fill-rule="evenodd" clip-rule="evenodd" d="M89.9401 43.9329C91.5814 44.8464 93.4633 45.3032 95.5857 45.3032C97.2837 45.3032 98.7977 44.9891 100.128 44.3611C101.486 43.7331 102.618 42.8766 103.524 41.7919C104.457 40.6785 105.122 39.451 105.519 38.1093H100C99.6325 38.9086 99.0665 39.5652 98.3024 40.079C97.5667 40.5643 96.647 40.807 95.5433 40.807C94.0718 40.807 92.8124 40.3359 91.7654 39.3939C90.7466 38.4518 90.1806 37.1529 90.0675 35.4972H106.071C106.099 35.1261 106.113 34.7692 106.113 34.4267C106.141 34.0841 106.155 33.7558 106.155 33.4418C106.155 31.5006 105.703 29.7449 104.797 28.1748C103.92 26.5762 102.689 25.3201 101.104 24.4066C99.5193 23.4931 97.694 23.0363 95.6282 23.0363C93.4209 23.0363 91.4966 23.5216 89.8552 24.4922C88.2422 25.4343 86.9687 26.7617 86.0349 28.4746C85.1293 30.1874 84.6765 32.1429 84.6765 34.341C84.6765 36.5106 85.1434 38.4233 86.0773 40.079C87.0112 41.7348 88.2988 43.0194 89.9401 43.9329ZM92.105 28.6458C93.1237 27.8751 94.2981 27.4897 95.6282 27.4897C97.0148 27.4897 98.1751 27.9036 99.109 28.7315C100.043 29.5594 100.552 30.6727 100.637 32.0715H90.1524C90.4353 30.53 91.0862 29.3881 92.105 28.6458Z" fill="url(#paint2_linear_850_15759)"/>
<path d="M119.164 44.7893V13.9583H124.597V44.7893H119.164Z" fill="url(#paint3_linear_850_15759)"/>
<path fill-rule="evenodd" clip-rule="evenodd" d="M131.677 44.4467C132.837 45.0177 134.323 45.3032 136.134 45.3032C137.888 45.3032 139.318 44.9321 140.421 44.1898C141.553 43.4476 142.43 42.5055 143.053 41.3636L143.562 44.7893H148.189V31.7289C148.189 28.9599 147.326 26.8188 145.6 25.3058C143.874 23.7928 141.511 23.0363 138.511 23.0363C136.757 23.0363 135.172 23.3503 133.757 23.9784C132.342 24.5779 131.182 25.4485 130.276 26.5904C129.399 27.7323 128.889 29.074 128.748 30.6156H134.054C134.252 29.5879 134.761 28.8171 135.582 28.3033C136.403 27.7609 137.365 27.4897 138.469 27.4897C139.685 27.4897 140.704 27.8322 141.525 28.5174C142.346 29.2025 142.756 30.273 142.756 31.7289V32.2428H137.407C134.351 32.2428 132.059 32.8566 130.531 34.0841C129.003 35.3116 128.239 36.9103 128.239 38.88C128.239 40.0505 128.521 41.121 129.087 42.0916C129.653 43.0622 130.517 43.8473 131.677 44.4467ZM140.973 39.4795C140.124 40.5072 138.921 41.0211 137.365 41.0211C136.346 41.0211 135.525 40.7927 134.903 40.3359C134.28 39.8792 133.969 39.2369 133.969 38.409C133.969 37.6382 134.28 36.9959 134.903 36.4821C135.525 35.9397 136.558 35.6685 138.002 35.6685H142.629C142.402 37.1815 141.85 38.4518 140.973 39.4795Z" fill="url(#paint4_linear_850_15759)"/>
<path d="M152.101 44.7893V23.5502H156.94L157.449 27.5325C158.213 26.1622 159.246 25.0774 160.548 24.2781C161.878 23.4502 163.435 23.0363 165.217 23.0363V28.8171H163.689C162.501 28.8171 161.439 29.0027 160.506 29.3738C159.572 29.7449 158.836 30.3872 158.298 31.3007C157.789 32.2142 157.534 33.4846 157.534 35.1118V44.7893H152.101Z" fill="url(#paint5_linear_850_15759)"/>
<path d="M65.5436 14.9632H59.164L78.4253 45.2844H84.8048L65.5436 14.9632Z" fill="url(#paint6_linear_850_15759)"/>
<path d="M78.3026 14.9632H84.6821L75.9716 28.9481L72.7819 23.9977L78.3026 14.9632Z" fill="url(#paint7_linear_850_15759)"/>
<path d="M70.9416 35.8786L68.1199 31.1757L59.164 45.2844H65.5436L70.9416 35.8786Z" fill="url(#paint8_linear_850_15759)"/>
<defs>
<linearGradient id="paint0_linear_850_15759" x1="0" y1="0" x2="274.025" y2="68.7405" gradientUnits="userSpaceOnUse">
<stop stop-color="white"/>
<stop offset="0.489583" stop-color="#E8E8F1"/>
<stop offset="1" stop-color="#C1C1D7"/>
</linearGradient>
<linearGradient id="paint1_linear_850_15759" x1="0" y1="0" x2="274.025" y2="68.7405" gradientUnits="userSpaceOnUse">
<stop stop-color="white"/>
<stop offset="0.489583" stop-color="#E8E8F1"/>
<stop offset="1" stop-color="#C1C1D7"/>
</linearGradient>
<linearGradient id="paint2_linear_850_15759" x1="0" y1="0" x2="274.025" y2="68.7405" gradientUnits="userSpaceOnUse">
<stop stop-color="white"/>
<stop offset="0.489583" stop-color="#E8E8F1"/>
<stop offset="1" stop-color="#C1C1D7"/>
</linearGradient>
<linearGradient id="paint3_linear_850_15759" x1="0" y1="0" x2="274.025" y2="68.7405" gradientUnits="userSpaceOnUse">
<stop stop-color="white"/>
<stop offset="0.489583" stop-color="#E8E8F1"/>
<stop offset="1" stop-color="#C1C1D7"/>
</linearGradient>
<linearGradient id="paint4_linear_850_15759" x1="0" y1="0" x2="274.025" y2="68.7405" gradientUnits="userSpaceOnUse">
<stop stop-color="white"/>
<stop offset="0.489583" stop-color="#E8E8F1"/>
<stop offset="1" stop-color="#C1C1D7"/>
</linearGradient>
<linearGradient id="paint5_linear_850_15759" x1="0" y1="0" x2="274.025" y2="68.7405" gradientUnits="userSpaceOnUse">
<stop stop-color="white"/>
<stop offset="0.489583" stop-color="#E8E8F1"/>
<stop offset="1" stop-color="#C1C1D7"/>
</linearGradient>
<linearGradient id="paint6_linear_850_15759" x1="0" y1="0" x2="274.025" y2="68.7405" gradientUnits="userSpaceOnUse">
<stop stop-color="white"/>
<stop offset="0.489583" stop-color="#E8E8F1"/>
<stop offset="1" stop-color="#C1C1D7"/>
</linearGradient>
<linearGradient id="paint7_linear_850_15759" x1="0" y1="0" x2="274.025" y2="68.7405" gradientUnits="userSpaceOnUse">
<stop stop-color="white"/>
<stop offset="0.489583" stop-color="#E8E8F1"/>
<stop offset="1" stop-color="#C1C1D7"/>
</linearGradient>
<linearGradient id="paint8_linear_850_15759" x1="0" y1="0" x2="274.025" y2="68.7405" gradientUnits="userSpaceOnUse">
<stop stop-color="white"/>
<stop offset="0.489583" stop-color="#E8E8F1"/>
<stop offset="1" stop-color="#C1C1D7"/>
</linearGradient>
</defs>
</svg>
