<svg width="204" height="246" viewBox="0 0 204 246" fill="none" xmlns="http://www.w3.org/2000/svg">
<path fill-rule="evenodd" clip-rule="evenodd" d="M203.999 61.2739L101.999 0L0 61.2739L5.35566 64.0607L0 61.274V183.754L101.999 244.994V239.744H102.001V245.016L204 183.787L187.747 173.289L110.406 219.552V191.005L164.208 158.675V94.4334L187.746 80.3621V173.255L203.999 183.754V61.2739ZM110.406 176.153L151.878 151.092V101.804L110.406 126.596L110.406 176.153ZM101.999 111.432L142.841 87.0221L101.999 62.4405L61.2667 86.9567L101.999 111.432ZM93.5928 176.174L52.1206 151.092L47.8894 153.694L52.1205 151.092V101.671L93.5928 126.596L93.5928 176.174ZM93.5928 191.029V219.581L15.6922 173.255V79.7779L39.791 94.2613V158.675L93.5928 191.029ZM101.999 49.0261L50.0686 80.2281L23.8992 64.5033L101.999 17.5312L179.613 65.0438L154.069 80.3113L101.999 49.0261Z" fill="url(#paint0_linear_286_12174)"/>
<defs>
<linearGradient id="paint0_linear_286_12174" x1="154.013" y1="-1.05786e-05" x2="446.38" y2="279.355" gradientUnits="userSpaceOnUse">
<stop stop-color="#23282F"/>
<stop offset="1" stop-color="#C1C1D7"/>
</linearGradient>
</defs>
</svg>
