<svg width="140" height="50" viewBox="0 0 140 50" fill="none" xmlns="http://www.w3.org/2000/svg">
<path fill-rule="evenodd" clip-rule="evenodd" d="M21.2183 0L42.4366 12.5041V37.4983L39.0556 35.3559V16.3994L34.1591 19.2709V32.3805L22.967 38.9781V44.8037L39.0559 35.3628L42.4369 37.5051L21.2186 50V48.9242H21.2183V49.9954L0 37.4983V12.5041L21.2183 0ZM31.5943 30.8332L22.967 35.9472L22.967 25.8343L31.5943 20.775V30.8332ZM29.7142 17.7585L21.2183 22.7398L12.7449 17.7451L21.2183 12.7421L29.7142 17.7585ZM10.8423 30.8332L19.4695 35.9515L19.4695 25.8343L10.8423 20.7479L10.8423 30.8332ZM19.4695 44.8095V38.983L8.27746 32.3805V19.2357L3.26435 16.2801V35.3559L19.4695 44.8095ZM10.4155 16.372L21.2183 10.0047L32.0499 16.389L37.3638 13.2734L21.2183 3.57757L4.97159 13.1631L10.4155 16.372Z" fill="url(#paint0_linear_850_15623)"/>
<path d="M92.746 11.6319V37.3244H97.3501V11.6319H92.746Z" fill="url(#paint1_linear_850_15623)"/>
<path fill-rule="evenodd" clip-rule="evenodd" d="M76.2124 36.6107C77.6032 37.372 79.1979 37.7526 80.9963 37.7526C82.4351 37.7526 83.718 37.491 84.8451 36.9676C85.9961 36.4442 86.9553 35.7305 87.7226 34.8265C88.514 33.8988 89.0775 32.8758 89.4132 31.7577H84.7372C84.4254 32.4238 83.9458 32.971 83.2984 33.3992C82.6749 33.8036 81.8956 34.0058 80.9604 34.0058C79.7134 34.0058 78.6463 33.6133 77.7591 32.8282C76.8958 32.0432 76.4162 30.9608 76.3203 29.581H89.8808C89.9048 29.2717 89.9168 28.9744 89.9168 28.6889C89.9408 28.4034 89.9527 28.1298 89.9527 27.8682C89.9527 26.2505 89.5691 24.7874 88.8017 23.479C88.0583 22.1468 87.0152 21.1001 85.6724 20.3388C84.3295 19.5775 82.7828 19.1969 81.0323 19.1969C79.1619 19.1969 77.5313 19.6013 76.1405 20.4102C74.7736 21.1952 73.6945 22.3014 72.9032 23.7288C72.1359 25.1562 71.7522 26.7857 71.7522 28.6175C71.7522 30.4255 72.1479 32.0194 72.9392 33.3992C73.7305 34.779 74.8216 35.8495 76.2124 36.6107ZM78.0468 23.8715C78.9101 23.2292 79.9053 22.9081 81.0323 22.9081C82.2073 22.9081 83.1905 23.253 83.9818 23.9429C84.7731 24.6328 85.2048 25.5606 85.2767 26.7263H76.3923C76.632 25.4416 77.1836 24.4901 78.0468 23.8715Z" fill="url(#paint2_linear_850_15623)"/>
<path d="M100.975 37.3244V11.6319H105.579V37.3244H100.975Z" fill="url(#paint3_linear_850_15623)"/>
<path fill-rule="evenodd" clip-rule="evenodd" d="M111.579 37.039C112.562 37.5147 113.821 37.7526 115.356 37.7526C116.842 37.7526 118.053 37.4434 118.989 36.8249C119.948 36.2063 120.691 35.4213 121.219 34.4697L121.65 37.3244H125.571V26.4408C125.571 24.1332 124.84 22.349 123.377 21.0882C121.914 19.8273 119.912 19.1969 117.37 19.1969C115.883 19.1969 114.54 19.4586 113.341 19.982C112.142 20.4815 111.159 21.2071 110.392 22.1587C109.648 23.1103 109.217 24.2284 109.097 25.513H113.593C113.761 24.6566 114.193 24.0143 114.888 23.5861C115.583 23.1341 116.399 22.9081 117.334 22.9081C118.365 22.9081 119.228 23.1935 119.924 23.7645C120.619 24.3354 120.967 25.2275 120.967 26.4408V26.869H116.435C113.845 26.869 111.903 27.3805 110.608 28.4034C109.313 29.4264 108.665 30.7586 108.665 32.4C108.665 33.3754 108.905 34.2675 109.385 35.0763C109.864 35.8852 110.596 36.5394 111.579 37.039ZM119.456 32.8996C118.737 33.756 117.718 34.1842 116.399 34.1842C115.535 34.1842 114.84 33.9939 114.312 33.6133C113.785 33.2327 113.521 32.6974 113.521 32.0075C113.521 31.3652 113.785 30.8299 114.312 30.4017C114.84 29.9497 115.715 29.7237 116.938 29.7237H120.859C120.667 30.9846 120.199 32.0432 119.456 32.8996Z" fill="url(#paint4_linear_850_15623)"/>
<path d="M128.885 37.3244V19.6251H132.986L133.418 22.9437C134.065 21.8019 134.94 20.8979 136.043 20.2318C137.17 19.5419 138.489 19.1969 140 19.1969V24.0143H138.705C137.698 24.0143 136.799 24.1689 136.007 24.4782C135.216 24.7874 134.593 25.3227 134.137 26.0839C133.705 26.8452 133.49 27.9038 133.49 29.2598V37.3244H128.885Z" fill="url(#paint5_linear_850_15623)"/>
<path d="M55.5395 12.4693H50.1337L66.4551 37.737H71.8609L55.5395 12.4693Z" fill="url(#paint6_linear_850_15623)"/>
<path d="M66.3512 12.4693H71.757L64.376 24.1234L61.6731 19.9981L66.3512 12.4693Z" fill="url(#paint7_linear_850_15623)"/>
<path d="M60.1137 29.8988L57.7227 25.9798L50.1337 37.737H55.5395L60.1137 29.8988Z" fill="url(#paint8_linear_850_15623)"/>
<defs>
<linearGradient id="paint0_linear_850_15623" x1="0" y1="0" x2="153.04" y2="40.901" gradientUnits="userSpaceOnUse">
<stop/>
<stop offset="0.260417" stop-color="#575967"/>
<stop offset="0.729167" stop-color="#111417"/>
<stop offset="1" stop-color="#4B4B7E"/>
</linearGradient>
<linearGradient id="paint1_linear_850_15623" x1="0" y1="0" x2="153.04" y2="40.901" gradientUnits="userSpaceOnUse">
<stop/>
<stop offset="0.260417" stop-color="#575967"/>
<stop offset="0.729167" stop-color="#111417"/>
<stop offset="1" stop-color="#4B4B7E"/>
</linearGradient>
<linearGradient id="paint2_linear_850_15623" x1="0" y1="0" x2="153.04" y2="40.901" gradientUnits="userSpaceOnUse">
<stop/>
<stop offset="0.260417" stop-color="#575967"/>
<stop offset="0.729167" stop-color="#111417"/>
<stop offset="1" stop-color="#4B4B7E"/>
</linearGradient>
<linearGradient id="paint3_linear_850_15623" x1="0" y1="0" x2="153.04" y2="40.901" gradientUnits="userSpaceOnUse">
<stop/>
<stop offset="0.260417" stop-color="#575967"/>
<stop offset="0.729167" stop-color="#111417"/>
<stop offset="1" stop-color="#4B4B7E"/>
</linearGradient>
<linearGradient id="paint4_linear_850_15623" x1="0" y1="0" x2="153.04" y2="40.901" gradientUnits="userSpaceOnUse">
<stop/>
<stop offset="0.260417" stop-color="#575967"/>
<stop offset="0.729167" stop-color="#111417"/>
<stop offset="1" stop-color="#4B4B7E"/>
</linearGradient>
<linearGradient id="paint5_linear_850_15623" x1="0" y1="0" x2="153.04" y2="40.901" gradientUnits="userSpaceOnUse">
<stop/>
<stop offset="0.260417" stop-color="#575967"/>
<stop offset="0.729167" stop-color="#111417"/>
<stop offset="1" stop-color="#4B4B7E"/>
</linearGradient>
<linearGradient id="paint6_linear_850_15623" x1="0" y1="0" x2="153.04" y2="40.901" gradientUnits="userSpaceOnUse">
<stop/>
<stop offset="0.260417" stop-color="#575967"/>
<stop offset="0.729167" stop-color="#111417"/>
<stop offset="1" stop-color="#4B4B7E"/>
</linearGradient>
<linearGradient id="paint7_linear_850_15623" x1="0" y1="0" x2="153.04" y2="40.901" gradientUnits="userSpaceOnUse">
<stop/>
<stop offset="0.260417" stop-color="#575967"/>
<stop offset="0.729167" stop-color="#111417"/>
<stop offset="1" stop-color="#4B4B7E"/>
</linearGradient>
<linearGradient id="paint8_linear_850_15623" x1="0" y1="0" x2="153.04" y2="40.901" gradientUnits="userSpaceOnUse">
<stop/>
<stop offset="0.260417" stop-color="#575967"/>
<stop offset="0.729167" stop-color="#111417"/>
<stop offset="1" stop-color="#4B4B7E"/>
</linearGradient>
</defs>
</svg>
