<svg width="34" height="32" viewBox="0 0 34 32" fill="none" xmlns="http://www.w3.org/2000/svg">
<path d="M1.5625 1.75H3.757C4.5645 1.75 5.26908 2.29308 5.47808 3.07208L6.0845 5.34733M6.0845 5.34733C14.9047 5.10016 23.7164 6.08066 32.2665 8.26067C30.9618 12.1462 29.4118 15.9208 27.6368 19.5625H9.875M6.0845 5.34733L9.875 19.5625M9.875 19.5625C8.61522 19.5625 7.40704 20.0629 6.51624 20.9537C5.62545 21.8445 5.125 23.0527 5.125 24.3125H30.0625M7.5 29.0625C7.5 29.3774 7.37489 29.6795 7.15219 29.9022C6.92949 30.1249 6.62744 30.25 6.3125 30.25C5.99756 30.25 5.69551 30.1249 5.47281 29.9022C5.25011 29.6795 5.125 29.3774 5.125 29.0625C5.125 28.7476 5.25011 28.4455 5.47281 28.2228C5.69551 28.0001 5.99756 27.875 6.3125 27.875C6.62744 27.875 6.92949 28.0001 7.15219 28.2228C7.37489 28.4455 7.5 28.7476 7.5 29.0625ZM27.6875 29.0625C27.6875 29.3774 27.5624 29.6795 27.3397 29.9022C27.117 30.1249 26.8149 30.25 26.5 30.25C26.1851 30.25 25.883 30.1249 25.6603 29.9022C25.4376 29.6795 25.3125 29.3774 25.3125 29.0625C25.3125 28.7476 25.4376 28.4455 25.6603 28.2228C25.883 28.0001 26.1851 27.875 26.5 27.875C26.8149 27.875 27.117 28.0001 27.3397 28.2228C27.5624 28.4455 27.6875 28.7476 27.6875 29.0625Z" stroke="black" stroke-width="2" stroke-linecap="round" stroke-linejoin="round"/>
</svg>
