<?xml version="1.0" standalone="no"?>
<!DOCTYPE svg PUBLIC "-//W3C//DTD SVG 20010904//EN"
 "http://www.w3.org/TR/2001/REC-SVG-20010904/DTD/svg10.dtd">
<svg version="1.0" xmlns="http://www.w3.org/2000/svg"
 width="512.000000pt" height="512.000000pt" viewBox="0 0 512.000000 512.000000"
 preserveAspectRatio="xMidYMid meet">
<metadata>
Created by potrace 1.14, written by Peter Selinger 2001-2017
</metadata>
<g transform="translate(0.000000,512.000000) scale(0.100000,-0.100000)"
fill="#000000" stroke="none">
<path d="M370 5026 c-114 -31 -202 -105 -253 -213 l-32 -68 -3 -2155 c-2
-1605 0 -2169 8 -2210 29 -133 118 -234 253 -285 l67 -25 2164 3 c1905 2 2165
4 2181 17 11 8 16 10 12 3 -4 -7 14 -3 40 9 65 28 94 48 87 59 -3 5 0 8 8 7 7
-2 12 3 10 10 -1 8 2 11 7 8 13 -8 63 45 57 61 -3 7 0 12 7 10 7 -1 11 6 11
15 -1 10 3 15 9 11 6 -4 8 0 4 11 -4 9 -3 15 2 12 4 -3 15 16 24 42 14 42 16
270 16 2191 1 1705 -1 2147 -11 2159 -10 13 -10 14 0 8 16 -9 16 -10 -8 60
-38 109 -105 185 -210 237 l-65 32 -2170 2 c-1706 1 -2180 -1 -2215 -11z"/>
</g>
</svg>
